<svg width="192" height="192" viewBox="0 0 192 192" fill="none" xmlns="http://www.w3.org/2000/svg">
<rect width="192" height="192" rx="24" fill="#0ea5e9"/>
<path d="M96 48C78.4 48 64 62.4 64 80V96H56C50.7 96 48 98.7 48 104V152C48 157.3 50.7 160 56 160H136C141.3 160 144 157.3 144 152V104C144 98.7 141.3 96 136 96H128V80C128 62.4 113.6 48 96 48ZM80 80C80 71.2 87.2 64 96 64S112 71.2 112 80V96H80V80ZM112 128H104V136C104 140.4 100.4 144 96 144S88 140.4 88 136V128H80C75.6 128 72 124.4 72 120S75.6 112 80 112H112C116.4 112 120 115.6 120 120S116.4 128 112 128Z" fill="white"/>
</svg>