<svg width="512" height="512" viewBox="0 0 512 512" fill="none" xmlns="http://www.w3.org/2000/svg">
<rect width="512" height="512" rx="64" fill="#0ea5e9"/>
<path d="M256 128C209.6 128 171.2 166.4 171.2 212.8V256H153.6C140.8 256 128 268.8 128 281.6V403.2C128 416 140.8 428.8 153.6 428.8H358.4C371.2 428.8 384 416 384 403.2V281.6C384 268.8 371.2 256 358.4 256H340.8V212.8C340.8 166.4 302.4 128 256 128ZM213.3 212.8C213.3 190.4 230.4 173.3 252.8 173.3H259.2C281.6 173.3 298.7 190.4 298.7 212.8V256H213.3V212.8ZM298.7 341.3H277.3V362.7C277.3 374.3 267.7 384 256 384S234.7 374.3 234.7 362.7V341.3H213.3C201.7 341.3 192 331.7 192 320S201.7 298.7 213.3 298.7H298.7C310.3 298.7 320 308.3 320 320S310.3 341.3 298.7 341.3Z" fill="white"/>
</svg>